<svg width="150" height="150" viewBox="0 0 150 150" fill="none" xmlns="http://www.w3.org/2000/svg">
<path fill-rule="evenodd" clip-rule="evenodd" d="M0 30C0 13.4315 13.4315 0 30 0C46.5685 0 60 13.4315 60 30V70C60 81.0457 68.9543 90 80 90H120C136.569 90 150 103.431 150 120C150 136.569 136.569 150 120 150H30C27.9289 150 25.9069 149.79 23.954 149.391C10.2835 146.593 0 134.497 0 120V30ZM150 30C150 46.5685 136.569 60 120 60C103.431 60 90 46.5685 90 30C90 13.4315 103.431 0 120 0C136.569 0 150 13.4315 150 30Z" fill="url(#paint0_linear_401_20)"/>
<defs>
<linearGradient id="paint0_linear_401_20" x1="8.5" y1="6" x2="133.289" y2="149.187" gradientUnits="userSpaceOnUse">
<stop stop-color="#FF6C79"/>
<stop offset="1" stop-color="#FFA841"/>
</linearGradient>
</defs>
</svg>