<svg width="65" height="65" viewBox="0 0 65 65" fill="none" xmlns="http://www.w3.org/2000/svg">
<g clip-path="url(#clip0_2008_101)">
<path fill-rule="evenodd" clip-rule="evenodd" d="M10 19C10 14.0294 14.0294 10 19 10C23.9706 10 28 14.0294 28 19V31C28 34.3137 30.6863 37 34 37H46C50.9707 37 55 41.0293 55 46C55 50.9707 50.9707 55 46 55H19C18.3787 55 17.7721 54.937 17.1862 54.8173C13.0851 53.9779 10 50.3491 10 46V19ZM55 19C55 23.9706 50.9707 28 46 28C41.0293 28 37 23.9706 37 19C37 14.0294 41.0293 10 46 10C50.9707 10 55 14.0294 55 19Z" fill="url(#paint0_linear_2008_101)"/>
<path d="M29.3943 9.18926C29.4085 9.12349 29.3657 9.05948 29.3003 9.04564C29.2351 9.03243 29.171 9.07471 29.1578 9.14048C29.1447 9.20669 29.1868 9.26927 29.2517 9.28353C29.3174 9.29632 29.3806 9.25456 29.3943 9.18926Z" fill="#547BBC"/>
<path d="M26.7543 9.27174C26.6751 9.25516 26.5965 9.30676 26.5806 9.38679C26.5641 9.46596 26.6156 9.54471 26.6947 9.56071C26.7754 9.57702 26.8529 9.52522 26.8694 9.44586C26.8854 9.36641 26.8334 9.28775 26.7543 9.27174Z" fill="#547BBC"/>
<path d="M24.9868 8.7114C24.9943 8.67293 24.9695 8.63577 24.9315 8.62814C24.8935 8.62055 24.856 8.64443 24.8484 8.68237C24.8409 8.72046 24.8653 8.75823 24.9029 8.76595C24.9419 8.77378 24.9787 8.74901 24.9868 8.7114" fill="#547BBC"/>
<path d="M28.3853 8.92476C28.2324 8.89246 28.0853 8.99111 28.0546 9.14166C28.0236 9.29282 28.1199 9.44046 28.2715 9.47141C28.4228 9.50337 28.5706 9.40558 28.6016 9.25437C28.6327 9.10378 28.5359 8.95571 28.3853 8.92476" fill="#547BBC"/>
<path d="M27.3016 9.46102C27.3247 9.35146 27.254 9.24437 27.1439 9.22132C27.0345 9.19913 26.9267 9.26864 26.9043 9.37963C26.8812 9.48919 26.9522 9.59719 27.062 9.61876C27.1721 9.64215 27.2792 9.57144 27.3016 9.46102Z" fill="#547BBC"/>
<path d="M26.7266 6.37286C27.2931 6.07941 27.8811 5.74367 28.5525 5.809C28.7698 5.82996 28.9903 5.91633 29.1751 6.04166C29.256 6.09784 29.3659 6.26521 29.4429 6.29647C29.6506 6.38081 29.7443 6.23718 29.9305 6.45002C30.0574 6.59742 30.1812 6.89529 30.1335 7.10886C30.4922 7.22639 30.9489 7.94654 30.5205 8.33234C30.8204 8.62889 30.7888 9.65383 30.359 9.8088C30.6325 10.1015 30.1048 11.2317 29.7245 11.1979C29.6354 11.4594 29.3351 11.8277 29.0784 11.7689C28.9762 12.1193 28.5608 12.1449 28.3147 12.0357C28.1624 12.3926 27.0782 13.0673 26.9953 12.4292C26.8063 12.6533 26.52 12.7477 26.2598 12.6601C25.9975 12.5717 25.9904 12.3058 25.8301 12.159C25.6819 12.0242 25.4387 12.0335 25.2906 11.7693C25.1547 11.5274 25.1787 11.3036 25.255 11.0194C25.025 10.8542 24.3141 10.6014 24.7554 10.1226C24.4275 10.0349 24.4297 9.36924 24.4884 9.06013C24.5405 8.79383 24.7031 8.6909 24.7864 8.50311C24.8688 8.31593 24.8559 8.02761 24.92 7.80339C25.1205 7.09496 25.6501 7.20751 26.0552 6.85994C26.2714 6.675 26.6442 6.21527 26.8787 6.39388L26.7266 6.37286" fill="url(#paint1_linear_2008_101)"/>
<path d="M28.4561 11.795C28.2697 11.7263 28.3096 11.7285 28.1093 11.8515C27.9801 11.9305 27.7793 12.0666 27.68 11.8904C27.4749 12.2164 27.0573 12.1373 26.8056 11.9698C26.6213 12.1433 26.3022 11.9951 26.1439 11.8463C26.0329 11.7455 26.0652 11.6479 26.0054 11.5468C25.9614 11.4711 25.9125 11.4636 25.8399 11.4113C25.5 11.1643 25.3446 10.6309 25.3726 10.189C25.1777 10.1099 25.0526 10.0157 24.9379 9.82061C24.8226 9.61936 24.8888 9.52629 24.8512 9.32353C24.8239 9.17764 24.7 9.08703 24.6451 8.92555C24.6264 8.86895 24.6178 8.81867 24.6135 8.7701C24.5611 8.84779 24.5128 8.93646 24.4884 9.06013C24.4297 9.36924 24.4275 10.0349 24.7554 10.1226C24.3141 10.6014 25.025 10.8542 25.255 11.0194C25.1787 11.3036 25.1547 11.5274 25.2906 11.7693C25.4387 12.0335 25.6819 12.0242 25.8301 12.159C25.9904 12.3058 25.9975 12.5717 26.2598 12.6601C26.52 12.7477 26.8063 12.6533 26.9953 12.4292C27.0782 13.0673 28.1624 12.3926 28.3147 12.0357C28.5024 12.1186 28.7892 12.1228 28.9601 11.9647C28.7851 11.9407 28.6206 11.8574 28.4561 11.795" fill="url(#paint2_linear_2008_101)"/>
<path d="M29.7247 11.198C30.105 11.2318 30.6328 10.1016 30.3592 9.80888C30.6805 9.69329 30.7791 9.09031 30.6832 8.66942C30.5912 8.81179 30.4899 8.95668 30.4665 9.05933C30.4054 9.32736 30.5398 9.35906 30.3375 9.65342C30.1494 9.92636 30.1025 10.069 29.993 10.3709C29.8941 10.6452 29.7354 10.792 29.4811 10.8369C29.664 11.0427 29.2026 11.3769 29.0102 11.3804C28.7901 11.3842 28.6648 11.2111 28.4212 11.3667L28.3753 11.398L28.4212 11.3667C28.5489 11.2667 28.67 11.0723 28.4809 10.9976C28.7645 10.8242 29.0864 10.4472 28.7032 10.1985C29.1145 9.83975 29.2212 9.27168 28.7218 9.06653C28.8363 8.71326 28.529 8.48967 28.2368 8.54239C28.1209 7.90249 27.3211 7.47592 27.1374 7.40612C26.8965 7.31381 26.6411 7.32095 26.3734 7.25866C26.0533 7.18588 25.7994 7.09492 25.5056 7.15276C25.2598 7.25977 25.0359 7.39673 24.9202 7.80347C24.8562 8.02769 24.8691 8.31601 24.7867 8.50319C24.7416 8.60364 24.6752 8.68054 24.6138 8.77018C24.6181 8.81875 24.6266 8.86903 24.6453 8.92563C24.7003 9.08711 24.8242 9.17771 24.8515 9.32361C24.8891 9.52637 24.8228 9.61944 24.9382 9.82069C25.0529 10.0157 25.178 10.11 25.3728 10.1891C25.3448 10.631 25.5002 11.1644 25.8401 11.4113C25.9128 11.4637 25.9616 11.4712 26.0057 11.5469C26.0654 11.648 26.0332 11.7456 26.1442 11.8464C26.3024 11.9952 26.6215 12.1433 26.8059 11.9699C27.0575 12.1374 27.4751 12.2165 27.6803 11.8905C27.7795 12.0667 27.9803 11.9306 28.1095 11.8516C28.3099 11.7286 28.2699 11.7263 28.4564 11.7951C28.6209 11.8575 28.7854 11.9408 28.9604 11.9648C29.0133 11.9157 29.0545 11.8521 29.0787 11.769C29.3354 11.8278 29.6357 11.4594 29.7247 11.198" fill="url(#paint3_linear_2008_101)"/>
<path d="M27.1373 7.40593C27.321 7.47573 27.4008 7.51092 27.4361 7.60046C27.892 7.7404 28.1209 7.9023 28.2368 8.5422C28.529 8.48949 28.8363 8.71307 28.7218 9.06634C29.2212 9.27149 29.1145 9.83957 28.7032 10.1984C29.0864 10.4471 28.7645 10.824 28.4809 10.9974C28.6699 11.0722 28.5489 11.2665 28.4212 11.3665C28.6647 11.2109 28.7901 11.384 29.0101 11.3802C29.2026 11.3767 29.664 11.0425 29.4811 10.8367C29.7353 10.7918 29.8941 10.645 29.993 10.3707C30.1025 10.0688 30.1494 9.92617 30.3375 9.65323C30.5398 9.35887 30.4053 9.32717 30.4664 9.05915C30.4899 8.95649 30.5912 8.8116 30.6831 8.66924C30.6508 8.52762 30.5961 8.40663 30.5207 8.33223C30.9491 7.94643 30.4924 7.22628 30.1337 7.10875C30.1815 6.89518 30.0576 6.59731 29.9308 6.44992C29.7445 6.23707 29.6509 6.3807 29.4432 6.29636C29.3661 6.2651 29.2562 6.09773 29.1754 6.04155C28.9905 5.91622 28.77 5.82985 28.5527 5.8089C27.8941 5.74558 27.3168 6.06539 26.7614 6.35499C26.803 6.35538 26.8431 6.36641 26.879 6.39377L26.7268 6.37275L26.7614 6.35499C26.5329 6.35296 26.2384 6.70285 26.0554 6.85983C25.8822 7.00834 25.6885 7.07282 25.5056 7.15258C25.7993 7.09474 26.0532 7.18569 26.3733 7.25847C26.641 7.32077 26.8965 7.31362 27.1373 7.40593" fill="url(#paint4_linear_2008_101)"/>
<path d="M30.1889 9.18249C30.226 9.02434 30.1702 8.94408 30.1631 8.79765C30.1537 8.59297 30.2528 8.50353 30.2699 8.3156C30.2999 7.98577 30.06 7.61816 29.8953 7.39114C29.7459 7.18497 29.6204 6.92234 29.424 6.75717C29.1803 6.55116 28.9134 6.6074 28.6912 6.51446C28.4158 6.39899 28.2528 6.11827 27.9043 6.1431C27.6763 6.1593 27.4956 6.28166 27.2682 6.32242C27.0154 6.3667 26.8199 6.44287 26.6952 6.75565C26.5694 7.06999 26.6676 7.41729 26.9792 7.51597C27.2866 7.61261 27.3383 7.26646 27.5351 7.19487C27.6755 7.05548 27.8773 7.00778 28.0549 7.0247C28.2877 7.04908 28.3328 7.22631 28.4851 7.26889C28.7739 7.34822 29.332 7.23408 29.1372 7.85306C29.4237 7.94922 29.8488 8.3429 29.5971 8.71226C29.8566 8.98603 29.7331 9.33889 29.5532 9.66505C29.8309 9.6967 30.1114 9.51246 30.1889 9.18249" fill="url(#paint5_linear_2008_101)"/>
<path d="M27.638 7.18337C27.5988 7.18001 27.5655 7.18422 27.535 7.19507C27.4996 7.22995 27.4675 7.26867 27.4412 7.31458L27.638 7.18337" fill="url(#paint6_linear_2008_101)"/>
<path d="M28.421 9.91921C28.4365 9.84217 28.5631 9.81713 28.59 9.70666C28.6082 9.62871 28.5695 9.46419 28.546 9.39013C28.484 9.19647 28.3432 9.02277 28.2012 8.90202C28.6102 7.9573 27.7739 7.1682 26.8916 7.48141C26.7095 7.54714 26.5928 7.81094 26.461 7.86072C26.3112 7.91738 26.1222 7.74442 25.965 7.73825C25.7304 7.72813 25.4323 7.86182 25.4223 8.09701C25.2484 8.42395 25.5041 8.68497 25.7064 8.92542C25.2415 9.07779 25.2766 9.92891 25.7355 10.0669C25.708 10.322 25.8077 10.3268 25.9031 10.5033C25.9695 10.6268 25.9802 10.766 26.053 10.9355C26.1779 11.2308 27.3103 12.0554 27.3188 11.3889C27.5167 11.7564 28.2131 11.5384 28.2102 11.0821C28.6637 10.9863 28.3702 10.1714 28.421 9.91921" fill="url(#paint7_linear_2008_101)"/>
<path d="M25.2353 8.18994C25.1164 8.69648 25.4491 8.69296 25.6983 8.95131C25.9256 9.18514 25.9185 9.35551 26.3382 9.39114C26.5571 9.40969 27.0068 9.51974 27.2481 9.36054C27.3486 9.29414 27.7461 8.85538 27.7619 8.74623C27.7461 8.72553 27.7254 8.70764 27.7091 8.68665C27.8725 8.57488 28.0862 8.38721 28.2787 8.48482C28.1964 8.35078 28.0815 8.2349 27.9458 8.15252C27.9675 8.10338 27.9697 8.02408 27.9964 7.97751C27.6496 7.38561 26.8866 7.39889 26.2822 7.51646C25.9099 7.59017 25.699 7.62899 25.4454 7.92616C25.2871 8.1143 25.0755 8.48413 25.3515 8.64442L25.2353 8.18994Z" fill="url(#paint8_linear_2008_101)"/>
<path d="M28.4204 11.3671L28.3752 11.3979L28.4204 11.3671Z" fill="url(#paint9_linear_2008_101)"/>
<path d="M26.7461 6.50584C26.7065 6.48482 26.6655 6.47968 26.6238 6.48624L26.5912 6.50964L26.7461 6.50584" fill="url(#paint10_linear_2008_101)"/>
<path d="M8.60819 20.4679C8.60819 20.4679 10.5658 6.32747 15.5639 3.08184C15.5639 3.08184 16.0165 2.46759 18.4161 1.57286C18.8514 1.41033 18.7725 1.24511 20.3198 0.787197C22.0349 0.279935 26.6111 2.42816 27.4318 6.73944L27.8662 8.71057L26.2214 9.26559C26.2214 9.26559 25.2887 8.17479 24.2507 7.1638C24.2507 7.1638 21.5076 4.48681 21.8899 5.86226C21.8899 5.86226 23.3131 7.94674 23.5794 9.34581C23.5794 9.34581 23.8154 10.2665 24.9026 10.9051C24.9026 10.9051 27.0112 11.8318 28.0794 14.5867C28.0794 14.5867 29.2859 16.1687 30.4904 16.7854C31.6943 17.4014 28.3727 19.3011 28.3727 19.3011L10.8368 21.0699L8.60819 20.4679" fill="url(#paint11_linear_2008_101)"/>
<path d="M30.4903 16.7854C29.2857 16.1687 28.0792 14.5867 28.0792 14.5867C27.011 11.8318 24.9024 10.9051 24.9024 10.9051C23.8152 10.2665 23.5792 9.34581 23.5792 9.34581C23.3129 7.94674 21.8897 5.86227 21.8897 5.86227C21.5074 4.48681 24.2505 7.1638 24.2505 7.1638C25.2885 8.17479 26.2212 9.26559 26.2212 9.26559L27.8661 8.71057L27.4316 6.73944C26.6109 2.42816 22.0347 0.279939 20.3196 0.7872C18.7724 1.24511 18.8512 1.41033 18.4159 1.57286C18.3383 1.60098 18.262 1.63129 18.1887 1.65854C18.1657 1.66737 18.1431 1.6761 18.1203 1.68588C18.0701 1.70488 18.0196 1.72529 17.9709 1.74402C17.947 1.75341 17.9254 1.76196 17.9026 1.77227C17.8557 1.79062 17.8085 1.80946 17.7637 1.8284C17.7429 1.83621 17.7232 1.8444 17.7026 1.85277C17.6564 1.87199 17.6107 1.8915 17.5664 1.91036C17.55 1.91792 17.5335 1.92452 17.5172 1.93208C17.4701 1.95181 17.4235 1.97208 17.3794 1.99184C17.3667 1.99777 17.3547 2.00251 17.3421 2.00882C17.2939 2.03035 17.2474 2.05114 17.2016 2.07222C17.1924 2.0759 17.1847 2.07987 17.176 2.08345C17.1275 2.10598 17.0793 2.12808 17.0336 2.15007C17.0287 2.15298 17.0241 2.15479 17.0196 2.15665C16.9708 2.18075 16.9222 2.20295 16.8767 2.22627C16.8748 2.22663 16.8739 2.22681 16.8734 2.2269L15.5887 3.05182C15.5711 3.07097 15.5638 3.08184 15.5638 3.08184C14.5373 3.748 13.6403 4.87438 12.8609 6.2417C15.3843 7.47933 20.4379 10.7008 18.5034 15.9871C18.5034 15.9871 17.8168 18.4728 16.9971 20.4485L28.3725 19.3011C28.3725 19.3011 31.6941 17.4014 30.4903 16.7854" fill="url(#paint12_linear_2008_101)"/>
<path d="M30.4901 16.7855C29.2856 16.1688 28.0791 14.5868 28.0791 14.5868C27.0109 11.832 24.9023 10.9052 24.9023 10.9052C23.8151 10.2666 23.5791 9.34593 23.5791 9.34593C23.4298 8.56183 22.918 7.5622 22.4954 6.83657C21.2583 7.69642 20.3665 8.32591 20.3665 8.32591C20.3665 8.32591 21.9806 16.1719 16.4079 18.6201C14.3514 19.5242 15.9503 20.0126 18.7866 20.2681L28.3724 19.3012C28.3724 19.3012 31.694 17.4015 30.4901 16.7855" fill="url(#paint13_linear_2008_101)"/>
<path d="M19.7366 7.2385C20.9883 6.86786 22.1207 7.23829 23.0015 7.77581C22.5038 6.76228 21.8899 5.8622 21.8899 5.8622C21.5076 4.48674 24.2507 7.16373 24.2507 7.16373C25.2887 8.17472 26.2214 9.26552 26.2214 9.26552L27.1992 8.93474C26.8015 6.72605 26.2528 5.37183 25.8042 4.56973C25.3557 3.76796 25.0063 3.51782 25.0063 3.51782C23.9667 2.41822 22.8246 1.97076 21.6971 1.9197C20.569 1.86815 19.4555 2.21209 18.4719 2.69375C16.5038 3.65706 15.0562 5.17034 15.0562 5.17034C13.9151 6.47477 18.5098 7.60208 19.7366 7.2385" fill="#C32229"/>
<path d="M15.1042 5.18718C15.1095 5.18152 15.5754 4.69676 16.3326 4.10518C16.9199 3.64611 17.6829 3.12657 18.5404 2.71388C19.5133 2.24621 20.6073 1.91141 21.7148 1.96648C22.8251 2.02081 23.9468 2.4646 24.968 3.54556C24.968 3.54556 24.9877 3.56069 25.0209 3.58988C25.0263 3.59483 25.0333 3.60027 25.0405 3.60681C25.1621 3.71909 25.435 4.00844 25.7608 4.59105C25.9855 4.9932 26.2359 5.53533 26.4787 6.25568C26.7155 6.95747 26.9453 7.82748 27.14 8.90215C27.1363 8.89802 26.1852 9.21335 26.1802 9.20793C26.172 9.19848 25.553 8.4763 24.7687 7.66975C24.5962 7.49267 24.416 7.31166 24.233 7.13367C24.2053 7.10767 21.5351 4.50734 21.8951 5.83549C21.8887 5.83324 22.0306 6.04144 22.227 6.37252C22.3562 6.58951 22.5073 6.86155 22.6647 7.16154C22.7558 7.33672 22.8495 7.52049 22.9396 7.70828C22.7698 7.61016 22.5928 7.51844 22.4059 7.43439C22.3632 7.41491 22.3205 7.39833 22.2769 7.37947C22.2328 7.36064 22.19 7.34564 22.145 7.32757C22.0715 7.29915 21.9981 7.27448 21.9244 7.25305C21.3435 7.06628 20.7 6.99659 20.0189 7.14209C19.9273 7.16146 19.8359 7.18483 19.7438 7.21219C19.661 7.23625 19.5637 7.25438 19.4538 7.26587C19.4324 7.26801 19.411 7.26957 19.3886 7.27131C17.8396 7.3929 14.1015 6.35991 15.1042 5.18718Z" fill="#C12229"/>
<path d="M15.1533 5.20334C15.1641 5.19278 15.6309 4.70746 16.3876 4.11869C16.9792 3.65841 17.7489 3.14046 18.6099 2.73365C19.5701 2.27961 20.6453 1.95492 21.7335 2.01252C22.825 2.07158 23.9271 2.51119 24.9304 3.57281C24.9304 3.57281 24.9508 3.58918 24.9828 3.61722C24.9886 3.62208 24.9958 3.62847 25.0028 3.63406C25.1219 3.74374 25.3934 4.03052 25.717 4.61254C25.9389 5.00981 26.186 5.54506 26.4266 6.25654C26.6601 6.94892 26.8886 7.80897 27.0806 8.86986C27.0736 8.86137 26.1491 9.16082 26.1391 9.14941C26.1218 9.1315 25.5136 8.42188 24.7443 7.63179C24.5737 7.45682 24.3955 7.27835 24.2155 7.10324C24.1607 7.05192 21.5619 4.5281 21.9005 5.80866C21.8867 5.80391 22.0233 6.00502 22.2081 6.32696C22.3279 6.53643 22.4677 6.80371 22.6154 7.09951C22.7017 7.27236 22.7907 7.4549 22.8774 7.64042C22.7133 7.55163 22.5436 7.46683 22.3641 7.38794C22.3224 7.36871 22.2824 7.35602 22.24 7.33787C22.1971 7.32001 22.1576 7.30761 22.1144 7.29079C22.043 7.26329 21.9736 7.241 21.9038 7.22203C21.3288 7.04016 20.6942 6.97574 20.0217 7.11709C19.9325 7.136 19.8414 7.15833 19.7502 7.18551C19.6683 7.20906 19.5718 7.22643 19.464 7.23866C19.4437 7.24099 19.4223 7.24255 19.4003 7.24421C17.8748 7.36735 14.1965 6.34995 15.1533 5.20334" fill="#C02229"/>
<path d="M15.2013 5.21933C15.2172 5.20396 15.6868 4.71843 16.4421 4.13207C17.0383 3.67051 17.8148 3.15457 18.6784 2.75364C19.6275 2.31367 20.6837 1.99803 21.7508 2.0592C22.8251 2.12138 23.9065 2.55818 24.8918 3.60103C24.8918 3.60103 24.9132 3.6176 24.9447 3.64516C24.95 3.65011 24.9582 3.65651 24.9642 3.66228C25.081 3.7699 25.3508 4.05346 25.6736 4.63319C25.8927 5.02653 26.1366 5.55548 26.374 6.25774C26.605 6.94173 26.8307 7.79033 27.0211 8.83722C27.0098 8.82455 26.1131 9.10885 26.0976 9.09214C26.072 9.06441 25.4737 8.36811 24.7194 7.59447C24.5512 7.42162 24.3754 7.24518 24.1973 7.07261C24.1145 6.99595 21.589 4.54865 21.9052 5.7817C21.8853 5.77548 22.0163 5.96797 22.188 6.28103C22.2996 6.48343 22.4276 6.74612 22.5661 7.03775C22.6476 7.20861 22.7319 7.38958 22.8157 7.57274C22.6571 7.49219 22.494 7.41616 22.3212 7.34175C22.2808 7.32377 22.243 7.31476 22.2021 7.29725C22.1612 7.27941 22.1244 7.2706 22.0827 7.25384C22.014 7.22737 21.9474 7.20705 21.8829 7.19251C21.3141 7.01484 20.687 6.95053 20.0248 7.09145C19.936 7.11028 19.8469 7.13262 19.7565 7.15871C19.6756 7.18261 19.5804 7.20114 19.4743 7.21205C19.4534 7.2139 19.4325 7.21594 19.4106 7.21759C17.91 7.34177 14.2911 6.34049 15.2013 5.21933" fill="#BE2329"/>
<path d="M15.2503 5.23562C15.2707 5.21554 15.7422 4.72912 16.497 4.14589C17.0983 3.68262 17.8806 3.16825 18.7479 2.77359C19.6846 2.34678 20.7217 2.0421 21.7696 2.10599C22.8254 2.17223 23.8871 2.60471 24.854 3.62846C24.854 3.62846 24.8767 3.64632 24.9065 3.67324C24.9118 3.67767 24.9205 3.68427 24.9265 3.69008C25.0408 3.79492 25.3083 4.0768 25.6296 4.65428C25.846 5.04336 26.0871 5.56547 26.3212 6.25829C26.5496 6.93392 26.7727 7.77123 26.962 8.80449C26.947 8.78803 26.0768 9.05592 26.0564 9.03417C26.0223 8.99765 25.4344 8.31444 24.6954 7.5566C24.5286 7.38595 24.3553 7.21248 24.1796 7.04184C24.0692 6.93937 21.6162 4.56968 21.9105 5.75485C21.8841 5.74614 22.0091 5.93073 22.1689 6.23564C22.2718 6.43101 22.3882 6.68941 22.5173 6.976C22.5935 7.14519 22.673 7.32417 22.7534 7.50506C22.6004 7.43326 22.4451 7.36463 22.2784 7.29566C22.2399 7.2777 22.2043 7.27271 22.1645 7.25559C22.1253 7.23876 22.0925 7.23265 22.0519 7.21662C21.9855 7.19188 21.9227 7.17369 21.8614 7.1626C21.2989 6.98918 20.6805 6.92743 20.0277 7.06558C19.9404 7.08414 19.8523 7.10687 19.7633 7.13231C19.6833 7.15583 19.5893 7.1728 19.4844 7.18481C19.4641 7.18715 19.4433 7.18976 19.4215 7.1918C17.9461 7.32944 14.3855 6.33079 15.2503 5.23562" fill="#BC232A"/>
<path d="M15.2988 5.25207C15.3255 5.22634 15.7984 4.7396 16.5518 4.15921C17.1577 3.69408 17.9464 3.18235 18.8173 2.79338C19.7422 2.37979 20.7604 2.08525 21.7883 2.15276C22.8264 2.22241 23.8673 2.65151 24.8162 3.65591C24.8162 3.65591 24.8401 3.67507 24.8687 3.70069C24.874 3.70512 24.8837 3.71211 24.8892 3.71801C25.0006 3.8203 25.2666 4.0996 25.5867 4.67574C25.8001 5.05998 26.0381 5.57574 26.2695 6.25982C26.4952 6.92648 26.7158 7.75292 26.9029 8.77232C26.8847 8.75169 26.0411 9.0035 26.0156 8.97633C25.9733 8.93055 25.3953 8.26052 24.6714 7.51928C24.5064 7.3506 24.335 7.17929 24.1623 7.01153C24.0248 6.88316 21.6442 4.58999 21.9161 5.72809C21.883 5.71727 22.0026 5.89452 22.1497 6.18951C22.2439 6.37843 22.3484 6.63172 22.4684 6.91414C22.5392 7.08104 22.615 7.2586 22.6918 7.4367C22.5441 7.37433 22.3962 7.31353 22.2369 7.24972C22.1996 7.23252 22.1661 7.23059 22.1279 7.21416C22.0903 7.19853 22.0601 7.1954 22.0211 7.18005C21.9577 7.15567 21.898 7.14022 21.8413 7.13289C21.2844 6.96318 20.6752 6.90528 20.0316 7.04013C19.9447 7.05822 19.8585 7.08006 19.7705 7.10565C19.6908 7.12818 19.5983 7.14578 19.4951 7.15867C19.4748 7.161 19.4544 7.16295 19.4326 7.16498C17.9823 7.30191 14.4809 6.32113 15.2988 5.25207" fill="#BA232A"/>
<path d="M15.3477 5.2688C15.3788 5.23759 15.8541 4.75044 16.6066 4.17309C17.2172 3.70667 18.0122 3.19685 18.8865 2.81301C19.7992 2.41315 20.7982 2.12904 21.8062 2.19894C22.826 2.27303 23.8474 2.69852 24.7783 3.68358C24.7783 3.68358 24.803 3.70456 24.8303 3.72884C24.8351 3.73298 24.846 3.74074 24.8513 3.74569C24.9602 3.84538 25.2248 4.12205 25.5432 4.69717C25.7538 5.07692 25.9885 5.58598 26.2171 6.26057C26.4403 6.91903 26.6582 7.7344 26.8438 8.74037C26.8211 8.71494 26.0048 8.95139 25.9747 8.91814C25.9234 8.86366 25.3557 8.20652 24.6473 7.48204C24.4837 7.31503 24.3148 7.14669 24.1444 6.98096C23.9789 6.82725 21.6713 4.61132 21.9212 5.7013C21.8816 5.68799 21.9955 5.85791 22.13 6.14408C22.2155 6.32635 22.3082 6.57439 22.419 6.85272C22.485 7.01787 22.556 7.19363 22.6299 7.36923C22.4873 7.3157 22.3468 7.26258 22.1939 7.20373C22.1582 7.18736 22.1274 7.18917 22.0908 7.17337C22.0538 7.15784 22.0276 7.15779 21.9902 7.14312C21.929 7.12024 21.8732 7.10711 21.8205 7.10286C21.27 6.93792 20.6685 6.88114 20.0346 7.01509C19.9494 7.03228 19.8632 7.05408 19.7772 7.07955C19.6984 7.10184 19.6063 7.1184 19.5051 7.13168C19.4854 7.1345 19.465 7.13645 19.4441 7.1383C18.0167 7.27377 14.5751 6.3113 15.3477 5.2688" fill="#B8232A"/>
<path d="M15.3968 5.28507C15.4333 5.24896 15.9104 4.76088 16.6621 4.18676C17.2772 3.71833 18.0785 3.21024 18.9556 2.83336C19.8568 2.44591 20.8374 2.17183 21.825 2.24567C22.8271 2.32312 23.8281 2.74514 24.7405 3.71094C24.7405 3.71094 24.7664 3.73303 24.7932 3.75668C24.7974 3.76072 24.8088 3.76858 24.8141 3.77334C24.9201 3.87087 25.1831 4.14476 25.5002 4.71802C25.7079 5.09289 25.94 5.59607 26.1653 6.26087C26.3855 6.91145 26.6014 7.716 26.7847 8.70753C26.7584 8.67841 25.9696 8.89918 25.9335 8.86012C25.874 8.79637 25.3168 8.15271 24.6238 7.44397C24.4621 7.27969 24.295 7.11294 24.1273 6.9506C23.9341 6.77109 21.6994 4.63212 21.9269 5.67426C21.8805 5.6586 21.9894 5.82096 22.1109 6.09824C22.1883 6.27416 22.2695 6.51648 22.3707 6.79106C22.4313 6.95392 22.4974 7.12754 22.5685 7.30116C22.4316 7.25659 22.2981 7.21138 22.1519 7.15721C22.1178 7.14152 22.0887 7.14706 22.0542 7.1318C22.0183 7.11705 21.9953 7.12045 21.9594 7.10608C21.9009 7.08403 21.8486 7.07374 21.7999 7.07257C21.2557 6.91202 20.6625 6.8575 20.0381 6.98926C19.9545 7.00708 19.8695 7.0277 19.7843 7.05222C19.7062 7.075 19.616 7.09177 19.5162 7.10479C19.4965 7.1076 19.4766 7.10946 19.4553 7.11141C18.0529 7.24597 14.6705 6.30136 15.3968 5.28507" fill="#B7232A"/>
<path d="M15.4456 5.30139C15.4871 5.25991 15.9667 4.77195 16.7167 4.1999C17.3362 3.7308 18.1436 3.22348 19.0248 2.85278C19.9133 2.47911 20.8752 2.21555 21.8431 2.2922C22.8271 2.37343 23.8082 2.79175 24.7031 3.73831C24.7031 3.73831 24.7293 3.76192 24.7548 3.78423C24.759 3.78827 24.7714 3.79633 24.7763 3.80137C24.8794 3.89635 25.141 4.168 25.4562 4.73928C25.6616 5.11018 25.89 5.60657 26.1126 6.2626C26.331 6.90369 26.5438 7.69722 26.7254 8.67484C26.6954 8.64159 25.9338 8.84672 25.8927 8.80228C25.8246 8.72975 25.2773 8.09902 24.5992 7.40661C24.4393 7.24387 24.2748 7.08013 24.1095 6.92001C23.8892 6.71498 21.7268 4.65252 21.9325 5.64716C21.8789 5.63015 21.9829 5.78481 22.0916 6.05251C22.1605 6.22216 22.2289 6.45956 22.3211 6.72891C22.3765 6.89025 22.439 7.06265 22.5066 7.23342C22.3752 7.19728 22.2482 7.1607 22.1099 7.11136C22.0764 7.09615 22.0505 7.10552 22.0167 7.09112C21.9829 7.07692 21.9627 7.08268 21.9281 7.06956C21.8723 7.04858 21.8232 7.04013 21.7793 7.0429C21.2412 6.88603 20.6556 6.83505 20.0415 6.9639C19.9583 6.98112 19.8749 7.00199 19.7915 7.02577C19.7138 7.04845 19.6248 7.06637 19.5263 7.07816C19.507 7.08031 19.4867 7.08284 19.4658 7.08469C18.0873 7.21472 14.7654 6.2918 15.4456 5.30139" fill="#B5242A"/>
<path d="M15.4941 5.31781C15.541 5.27085 16.022 4.78262 16.7712 4.21381C17.3962 3.74271 18.2089 3.23782 19.0937 2.87281C19.9699 2.51192 20.9136 2.25918 21.8613 2.33903C22.8273 2.42395 23.7883 2.83851 24.6647 3.76568C24.6647 3.76568 24.6927 3.79063 24.717 3.81203C24.7207 3.81578 24.7337 3.82432 24.7385 3.82917C24.8395 3.92108 25.0988 4.19085 25.4127 4.76046C25.6153 5.12686 25.8409 5.61647 26.0603 6.26309C26.2757 6.8964 26.4859 7.6791 26.6663 8.64206C26.6324 8.60449 25.8976 8.79436 25.8516 8.74483C25.7746 8.66208 25.2373 8.04525 24.5747 7.36934C24.4172 7.20853 24.2545 7.04691 24.0913 6.88989C23.8434 6.65944 21.7534 4.67311 21.9372 5.62059C21.8776 5.60067 21.9765 5.74895 22.072 6.00682C22.1332 6.17002 22.1888 6.40249 22.2723 6.66753C22.3224 6.82701 22.3805 6.99713 22.4447 7.16569C22.3185 7.1384 22.1988 7.10926 22.067 7.06531C22.0355 7.05045 22.0113 7.06355 21.9796 7.0497C21.9468 7.03569 21.9304 7.04576 21.8972 7.03237C21.8436 7.01251 21.7985 7.00662 21.7587 7.01286C21.2263 6.86027 20.649 6.81156 20.0444 6.93807C19.9631 6.95506 19.8805 6.97523 19.7976 6.99892C19.7208 7.02085 19.6327 7.03821 19.5364 7.05116C19.5171 7.05365 19.4973 7.05608 19.477 7.05841C18.1229 7.18919 14.8597 6.28209 15.4941 5.31781" fill="#B3242A"/>
<path d="M15.5427 5.33416C15.5951 5.28236 16.0779 4.79319 16.8267 4.22732C17.4559 3.75508 18.2742 3.25104 19.1632 2.89255C20.0275 2.54434 20.9521 2.30023 21.8795 2.38493C22.8275 2.47168 23.7687 2.88525 24.627 3.79308C24.627 3.79308 24.6557 3.81923 24.6788 3.83952C24.6825 3.84327 24.6962 3.85263 24.7009 3.85657C24.7991 3.94708 25.0567 4.21312 25.3695 4.782C25.5686 5.14309 25.7911 5.62687 26.0083 6.26466C26.2208 6.88795 26.429 7.65979 26.6069 8.60992C26.5697 8.56799 25.862 8.74189 25.8104 8.6865C25.7254 8.5954 25.1985 7.99146 24.5503 7.33153C24.3942 7.17292 24.2346 7.01423 24.0742 6.85953C23.7986 6.6027 21.7812 4.69403 21.943 5.59377C21.8761 5.57178 21.9701 5.7125 22.0529 5.96102C22.1056 6.11848 22.1489 6.34584 22.223 6.60533C22.2679 6.76328 22.3216 6.93131 22.3825 7.09803C22.2619 7.0795 22.1497 7.05838 22.0246 7.01891C21.9943 7.00502 21.9728 7.02147 21.9421 7.00801C21.911 6.99521 21.8976 7.00798 21.8667 6.99613C21.8151 6.97681 21.7734 6.97299 21.7377 6.98265C21.2121 6.83422 20.6431 6.79049 20.0475 6.91275C19.9672 6.92956 19.8861 6.94946 19.8046 6.97287C19.7286 6.99424 19.642 7.01114 19.5468 7.02481C19.528 7.02745 19.5082 7.02969 19.4878 7.03164C18.1581 7.16374 14.9548 6.27247 15.5427 5.33416Z" fill="#B2242A"/>
<path d="M15.5911 5.35065C15.6488 5.29333 16.1335 4.8038 16.8809 4.24078C17.5148 3.767 18.3393 3.26431 19.232 2.91266C20.0834 2.57713 20.9898 2.3438 21.8976 2.43188C22.8276 2.52246 23.7482 2.93217 24.5886 3.82066C24.5886 3.82066 24.6185 3.84815 24.6405 3.86767C24.6446 3.87076 24.6583 3.88049 24.663 3.88463C24.7582 3.97225 25.0144 4.23605 25.3258 4.80301C25.5227 5.16032 25.7418 5.63665 25.9558 6.26523C26.1658 6.88064 26.3714 7.64128 26.5476 8.57727C26.5062 8.5313 25.8256 8.68941 25.769 8.6286C25.6754 8.52833 25.1584 7.93776 24.5262 7.29406C24.3718 7.13723 24.2137 6.98117 24.0563 6.82883C23.7532 6.54676 21.8081 4.71499 21.9475 5.5667C21.8748 5.54251 21.9635 5.67671 22.0331 5.91488C22.0784 6.06732 22.1086 6.28829 22.1736 6.54411C22.2136 6.69993 22.2625 6.86597 22.321 7.03024C22.205 7.02069 22.1002 7.00706 21.9826 6.97309C21.9533 6.9594 21.934 6.97982 21.9045 6.96732C21.8753 6.95453 21.8651 6.97076 21.8352 6.95911C21.7863 6.94081 21.7485 6.9397 21.7165 6.95316C21.1972 6.80911 20.6365 6.76707 20.0509 6.88743C19.9714 6.90349 19.8916 6.92273 19.8111 6.94596C19.7361 6.96701 19.6503 6.98334 19.5572 6.9978C19.5385 7.00077 19.5191 7.00292 19.4988 7.00487C18.1932 7.13396 15.0494 6.26236 15.5911 5.35065" fill="#B0242A"/>
<path d="M15.6399 5.36657C15.7027 5.30468 16.1897 4.81432 16.9366 4.25443C17.5747 3.77932 18.4053 3.2774 19.3017 2.93234C20.1407 2.60921 21.029 2.38727 21.9157 2.47873C22.8286 2.57276 23.7291 2.97825 24.5506 3.8481C24.5506 3.8481 24.5823 3.87679 24.6031 3.8954C24.6067 3.89877 24.6209 3.90841 24.6256 3.91236C24.7179 3.99762 24.9727 4.25936 25.2826 4.82355C25.4768 5.17693 25.6927 5.6469 25.9039 6.26618C26.1108 6.87276 26.3139 7.62305 26.4884 8.54507C26.4437 8.4947 25.7897 8.63698 25.7277 8.57079C25.6259 8.46131 25.1198 7.88387 24.5024 7.25611C24.3495 7.10133 24.1937 6.9473 24.0388 6.79793C23.7077 6.49052 21.8361 4.73585 21.9536 5.53982C21.8734 5.51305 21.9186 5.65455 22.0143 5.86903C22.0248 6.0202 22.0697 6.23045 22.125 6.48214C22.1593 6.63615 22.2039 6.80053 22.2594 6.96244C22.1491 6.9616 22.0518 6.95603 21.9399 6.9264C21.9129 6.91416 21.8957 6.93769 21.8677 6.92587C21.8398 6.91438 21.8331 6.9334 21.8043 6.92209C21.758 6.90468 21.7237 6.90621 21.6963 6.92337C21.1826 6.78309 20.6299 6.74165 20.0541 6.86148C19.9757 6.87793 19.8974 6.8969 19.8181 6.91877C19.7435 6.93986 19.6594 6.95688 19.5677 6.97087C19.5495 6.97394 19.5301 6.97609 19.5099 6.97856C18.2301 7.12126 15.1442 6.25259 15.6399 5.36657" fill="#AF242B"/>
<path d="M15.6887 5.38304C15.7569 5.31564 16.2447 4.8238 16.9908 4.26771C17.6333 3.78945 18.4703 3.29073 19.3701 2.95256C20.1971 2.64197 21.0667 2.43051 21.9342 2.52527C22.828 2.62274 23.7087 3.02504 24.5127 3.87565C24.5127 3.87565 24.5451 3.90559 24.5647 3.92305C24.5683 3.92641 24.5835 3.93626 24.5873 3.94058C24.6776 4.02311 24.9309 4.28207 25.2391 4.84525C25.4303 5.19318 25.6432 5.65741 25.8512 6.26742C26.0559 6.86556 26.2563 7.60436 26.4292 8.51243C26.3808 8.45836 25.7534 8.58471 25.6869 8.51286C25.5764 8.39421 25.0798 7.83024 24.478 7.21937C24.3273 7.06628 24.174 6.91469 24.0211 6.76781C23.6628 6.43455 21.8635 4.75602 21.9587 5.5133C21.8718 5.4849 21.9088 5.61947 21.9945 5.82348C21.995 5.96866 22.0287 6.17409 22.0756 6.42061C22.1046 6.57309 22.146 6.73563 22.1969 6.89436C22.0927 6.90239 22.0024 6.90512 21.8975 6.88073C21.8715 6.86888 21.8564 6.89586 21.8301 6.88467C21.8037 6.87329 21.8001 6.89582 21.7734 6.88562C21.7293 6.86932 21.6984 6.8727 21.6755 6.8929C21.1678 6.75781 20.6237 6.72015 20.0575 6.83622C19.9805 6.85202 19.9032 6.87119 19.8252 6.8924C19.7512 6.91346 19.6681 6.9312 19.5778 6.94434C19.5595 6.94684 19.5407 6.94947 19.5209 6.95186C18.2651 7.09311 15.239 6.24312 15.6887 5.38304" fill="#AD242B"/>
<path d="M15.7372 5.39935C15.8102 5.32657 16.2999 4.83438 17.0457 4.28147C17.6923 3.80182 18.5355 3.30387 19.4394 2.97187C20.2528 2.67325 21.1053 2.47338 21.9518 2.57156C22.829 2.67273 23.6893 3.07161 24.4744 3.90305C24.4744 3.90305 24.508 3.93429 24.5265 3.95102C24.53 3.95386 24.5458 3.96453 24.5494 3.96789C24.6373 4.04803 24.8886 4.30444 25.1956 4.86633C25.3841 5.21033 25.5936 5.66729 25.7993 6.26829C26.0004 6.85765 26.1988 7.58601 26.3695 8.48021C26.3174 8.42144 25.7176 8.53215 25.6456 8.45497C25.5264 8.32702 25.0403 7.77646 24.4534 7.18181C24.3041 7.03045 24.1532 6.88145 24.0028 6.73721C23.6174 6.37839 21.8905 4.77675 21.9638 5.48596C21.8705 5.45526 21.8985 5.58423 21.9753 5.7776C21.9647 5.91639 21.9884 6.1164 22.0266 6.35861C22.0503 6.50866 22.0869 6.66973 22.1354 6.82639C22.0359 6.8434 21.9529 6.85362 21.8554 6.83416C21.8306 6.82308 21.8182 6.85418 21.793 6.84358C21.7682 6.83264 21.7676 6.85842 21.742 6.84843C21.7006 6.83315 21.6731 6.83937 21.6549 6.86308C21.1533 6.73186 20.6169 6.69561 20.0604 6.81044C19.9843 6.82591 19.9083 6.84424 19.8314 6.86579C19.7581 6.88571 19.6764 6.90284 19.5878 6.91719C19.57 6.91998 19.5513 6.92261 19.5315 6.92538C18.3002 7.06543 15.3338 6.23322 15.7372 5.39935" fill="#AA242B"/>
<path d="M15.7859 5.41583C15.8644 5.33819 16.3572 4.84674 17.1007 4.29519C17.7532 3.81503 18.6008 3.31683 19.5086 2.99234C20.3095 2.70564 21.1434 2.51717 21.9707 2.61802C22.8294 2.72316 23.6692 3.11856 24.4368 3.93062C24.4368 3.93062 24.4711 3.96325 24.4884 3.97901C24.4919 3.98147 24.5083 3.99262 24.5119 3.99579C24.5968 4.07356 24.8467 4.32778 25.1519 4.88803C25.3374 5.22667 25.5448 5.67762 25.7467 6.26893C25.9458 6.85037 26.1416 7.56733 26.3106 8.44753C26.2546 8.38449 25.6816 8.47989 25.6046 8.3971C25.4773 8.26041 25.001 7.72269 24.4296 7.14403C24.2822 6.99516 24.1333 6.8487 23.9858 6.70697C23.5718 6.32233 21.9183 4.79779 21.9692 5.45935C21.8696 5.4264 21.8885 5.5492 21.9559 5.73201C21.9347 5.8649 21.9486 6.05982 21.9779 6.29676C21.996 6.44595 22.0281 6.60441 22.0733 6.75885C21.9794 6.78462 21.9039 6.80286 21.8127 6.78821C21.7894 6.77777 21.7792 6.81231 21.7556 6.80253C21.7325 6.79247 21.7349 6.82075 21.7109 6.81144C21.6722 6.79757 21.6482 6.80619 21.6341 6.83356C21.1386 6.70601 20.6112 6.67251 20.0635 6.78466C19.9888 6.79986 19.9144 6.81849 19.8388 6.83939C19.7656 6.85969 19.6854 6.87655 19.5987 6.89092C19.581 6.8939 19.5627 6.89639 19.5429 6.89863C18.3351 7.03572 15.4284 6.22381 15.7859 5.41583" fill="#A9252B"/>
<path d="M15.8343 5.43181C15.9183 5.34904 16.413 4.85722 17.1557 4.30895C17.8128 3.8273 18.6663 3.32931 19.5779 3.01166C20.3662 2.73659 21.1822 2.56008 21.9885 2.66492C22.8295 2.77356 23.6494 3.16526 24.3986 3.95859C24.3986 3.95859 24.4342 3.99237 24.4507 4.00637C24.4532 4.00939 24.4706 4.02035 24.4742 4.02372C24.5566 4.09833 24.8041 4.35062 25.1089 4.90849C25.2916 5.2432 25.4948 5.68764 25.6945 6.26994C25.891 6.8426 26.0841 7.54864 26.2515 8.41474C26.1914 8.34804 25.6455 8.42785 25.5634 8.33926C25.4273 8.19268 24.9615 7.66839 24.4051 7.10652C24.2595 6.95942 24.1131 6.81541 23.9676 6.6766C23.527 6.26616 21.9455 4.81875 21.9743 5.43206C21.8679 5.39695 21.8786 5.51296 21.9363 5.68626C21.9051 5.81315 21.9076 6.00236 21.9282 6.23518C21.9414 6.38275 21.9692 6.53893 22.0119 6.69078C21.9232 6.7256 21.8545 6.75141 21.7703 6.74235C21.7491 6.73192 21.7406 6.77019 21.7185 6.76052C21.6965 6.75137 21.7026 6.7834 21.6802 6.77477C21.644 6.76135 21.6235 6.77263 21.6129 6.80279C21.1244 6.68049 20.6047 6.64897 20.0671 6.75978C19.9934 6.7748 19.9191 6.79181 19.845 6.81248C19.7737 6.83242 19.6938 6.84857 19.6093 6.86372C19.5917 6.86708 19.5733 6.86905 19.554 6.87173C18.3728 7.02348 15.5228 6.21367 15.8343 5.43181" fill="#A7252B"/>
<path d="M15.8833 5.44829C15.9723 5.36076 16.4687 4.86801 17.2105 4.32244C17.8723 3.83931 18.7314 3.34237 19.6469 3.03228C20.4231 2.76894 21.22 2.60396 22.007 2.71134C22.8296 2.82409 23.6296 3.21203 24.3608 3.98626C24.3608 3.98626 24.397 4.02119 24.4125 4.03465C24.4149 4.0371 24.4334 4.04845 24.4364 4.05172C24.516 4.12454 24.7624 4.37359 25.0649 4.92996C25.2449 5.26018 25.4457 5.69755 25.6418 6.27125C25.8356 6.83536 26.0262 7.53015 26.1918 8.38225C26.1284 8.31138 25.6092 8.37565 25.5221 8.28148C25.3775 8.12631 24.9221 7.61491 24.381 7.06884C24.2374 6.92424 24.0924 6.78248 23.9503 6.64608C23.4816 6.2103 21.9725 4.83946 21.9796 5.40612C21.8663 5.36829 21.8684 5.47803 21.9171 5.64069C21.8749 5.76139 21.8681 5.94636 21.8792 6.17343C21.8868 6.31962 21.9106 6.47329 21.9496 6.6233C21.8665 6.66692 21.8052 6.70018 21.7273 6.69593C21.7078 6.68671 21.7014 6.72843 21.6815 6.71987C21.6605 6.71092 21.6701 6.74579 21.6493 6.73774C21.6155 6.72606 21.5982 6.73917 21.5924 6.77328C21.1095 6.65493 20.5983 6.62625 20.07 6.73411C19.9978 6.74885 19.925 6.76616 19.8517 6.78608C19.7809 6.80555 19.7025 6.82186 19.6195 6.83726C19.6018 6.84062 19.5839 6.8425 19.5647 6.84517C18.408 6.9963 15.6177 6.20427 15.8833 5.44829" fill="#A6252B"/>
<path d="M15.9317 5.46449C16.0256 5.37101 16.524 4.87847 17.2649 4.33594C17.9318 3.85148 18.796 3.35492 19.7157 3.05152C20.4784 2.80006 21.2583 2.64676 22.0252 2.75762C22.8302 2.87406 23.6097 3.25862 24.3229 4.01346C24.3229 4.01346 24.36 4.04982 24.3742 4.06233C24.3766 4.0644 24.3957 4.07656 24.3986 4.07892C24.4752 4.14944 24.7202 4.39566 25.0215 4.95126C25.199 5.27655 25.3961 5.70728 25.5899 6.27139C25.7807 6.82744 25.9692 7.5116 26.1327 8.34983C26.0651 8.27474 25.5734 8.32298 25.4808 8.22291C25.3276 8.05895 24.8826 7.56097 24.357 7.03127C24.2143 6.88849 24.0721 6.74904 23.9326 6.61561C23.4358 6.15397 21.9996 4.86008 21.9847 5.37867C21.865 5.33873 21.8586 5.44259 21.8974 5.5944C21.8446 5.70901 21.8271 5.88927 21.8304 6.11189C21.8321 6.25588 21.8517 6.40766 21.8877 6.55535C21.8102 6.60773 21.7558 6.64857 21.6853 6.64963C21.667 6.64137 21.6631 6.68606 21.6439 6.67837C21.6246 6.67062 21.6378 6.70866 21.618 6.70063C21.5868 6.68978 21.5735 6.70564 21.5713 6.7435C21.0951 6.62868 20.5917 6.60254 20.073 6.70821C20.0021 6.72268 19.9303 6.73981 19.8585 6.75946C19.788 6.77831 19.7109 6.79392 19.6295 6.80981C19.6123 6.81308 19.5945 6.81553 19.5753 6.81821C18.4432 6.96851 15.7124 6.19368 15.9317 5.46449Z" fill="#A4252A"/>
<path d="M15.9804 5.48102C16.0801 5.38197 16.5793 4.88797 17.3199 4.34933C17.9903 3.8621 18.8612 3.36736 19.7848 3.07152C20.5354 2.83198 21.2963 2.69045 22.0436 2.8046C22.83 2.92405 23.5901 3.30553 24.2853 4.04103C24.2853 4.04103 24.3231 4.07878 24.3366 4.0899C24.339 4.09196 24.3586 4.10461 24.3611 4.10706C24.4357 4.17484 24.6783 4.41905 24.9783 4.97239C25.1525 5.29347 25.3468 5.7178 25.5375 6.27322C25.7255 6.81977 25.912 7.49311 26.0733 8.31733C26.0024 8.23802 25.5374 8.27058 25.4404 8.16557C25.2785 7.99244 24.8434 7.50725 24.3327 6.99401C24.1924 6.85325 24.0527 6.71639 23.9147 6.58564C23.3912 6.09797 22.0274 4.88064 21.9901 5.35154C21.8636 5.31002 21.8491 5.40751 21.8785 5.54915C21.8152 5.65747 21.7867 5.8325 21.7812 6.0498C21.7777 6.19232 21.7935 6.34287 21.826 6.48777C21.7536 6.54843 21.7067 6.59786 21.6432 6.60398C21.6258 6.59554 21.6242 6.64463 21.607 6.63709C21.5893 6.62965 21.6051 6.67104 21.5874 6.66398C21.5584 6.65424 21.5484 6.67199 21.5508 6.71303C21.0805 6.60341 20.5859 6.58164 20.0767 6.68296C20.0067 6.69668 19.9363 6.71358 19.8654 6.73305C19.7959 6.75167 19.7199 6.76805 19.6403 6.7832C19.6232 6.78647 19.6054 6.78892 19.5867 6.79208C18.4779 6.94041 15.8072 6.18484 15.9804 5.48102" fill="#A2242A"/>
<path d="M16.029 5.49713C16.1338 5.39367 16.6366 4.90031 17.375 4.36308C18.0512 3.87528 18.9262 3.37877 19.8544 3.09154C20.5913 2.86291 21.3355 2.7346 22.062 2.85117C22.8304 2.97502 23.5705 3.35218 24.2472 4.06862C24.2472 4.06862 24.2866 4.10705 24.2991 4.11796C24.301 4.12012 24.3211 4.13249 24.3235 4.13494C24.3953 4.20036 24.6364 4.44198 24.9349 4.99308C25.1063 5.30971 25.2976 5.72825 25.4854 6.27379C25.6708 6.8119 25.8542 7.4745 26.0145 8.2852C25.9398 8.20157 25.5014 8.21829 25.3989 8.10795C25.2292 7.9249 24.8041 7.45366 24.3084 6.95625C24.1699 6.81765 24.0322 6.68333 23.8975 6.55428C23.346 6.04184 22.0552 4.90165 21.9961 5.32543C21.8627 5.28113 21.8391 5.37246 21.859 5.50316C21.7852 5.60596 21.7463 5.77542 21.7326 5.98855C21.7229 6.12968 21.7347 6.27753 21.7642 6.4195C21.6976 6.48953 21.6576 6.54707 21.6003 6.55744C21.5852 6.55044 21.5857 6.60264 21.5697 6.59641C21.5535 6.58912 21.5724 6.63392 21.5563 6.62716C21.5299 6.6183 21.5235 6.6388 21.5305 6.6834C21.0658 6.57773 20.5792 6.5567 20.0798 6.65721C20.0113 6.67118 19.9418 6.68753 19.8727 6.70606C19.8032 6.72473 19.7289 6.74174 19.6508 6.75719C19.6341 6.76037 19.6169 6.76306 19.5981 6.7657C18.5153 6.92588 15.9023 6.17513 16.029 5.49713" fill="#A1242A"/>
<path d="M16.0776 5.51341C16.1877 5.40443 16.6924 4.91075 17.4299 4.37675C18.1102 3.88723 18.9913 3.39092 19.9234 3.11124C20.6476 2.89391 21.3733 2.77794 22.0798 2.89794C22.831 3.02507 23.5502 3.39889 24.2089 4.09598C24.2089 4.09598 24.2495 4.13551 24.2609 4.14571C24.2627 4.14748 24.2834 4.16033 24.2859 4.16278C24.3546 4.22532 24.5947 4.46456 24.8915 5.0145C25.0606 5.32668 25.2485 5.73795 25.4332 6.27467C25.616 6.80442 25.7969 7.45611 25.9549 8.25237C25.8765 8.16505 25.4652 8.16579 25.3582 8.04974C25.1794 7.85766 24.7642 7.39974 24.2844 6.91861C24.1478 6.78217 24.0119 6.64944 23.8793 6.52397C23.3003 5.98573 22.0823 4.92201 22.0007 5.2981C21.8615 5.2515 21.8288 5.3368 21.8399 5.45724C21.7551 5.55423 21.7057 5.71778 21.6832 5.92655C21.6687 6.06573 21.6758 6.21163 21.7024 6.35162C21.6409 6.43047 21.6083 6.49554 21.5585 6.5114C21.5444 6.50479 21.5472 6.56101 21.5327 6.55488C21.5176 6.54832 21.5406 6.5964 21.525 6.58992C21.5013 6.58209 21.4988 6.60534 21.5098 6.65297C21.0511 6.55222 20.5728 6.53307 20.0833 6.63167C20.0153 6.64555 19.9477 6.66153 19.8789 6.67907C19.8108 6.69742 19.7374 6.71391 19.6609 6.72981C19.6443 6.73356 19.6275 6.73616 19.6088 6.73879C18.5509 6.89769 15.9971 6.16485 16.0776 5.51341" fill="#9F242A"/>
<path d="M16.1264 5.52982C16.2416 5.41607 16.7481 4.92142 17.4847 4.3905C18.1697 3.8997 19.0556 3.40309 19.9927 3.13131C20.7032 2.9249 21.4115 2.82128 22.0982 2.9439C22.831 3.07552 23.5308 3.44568 24.171 4.12352C24.171 4.12352 24.2124 4.1645 24.2225 4.17334C24.2243 4.17512 24.2457 4.18883 24.2479 4.19033C24.3138 4.25089 24.552 4.48763 24.8475 5.03589C25.0137 5.34362 25.1985 5.74854 25.3809 6.27587C25.5605 6.79674 25.7392 7.43703 25.8957 8.22029C25.8135 8.12812 25.4294 8.11342 25.3163 7.99161C25.1295 7.79122 24.7252 7.34605 24.2597 6.88091C24.1246 6.74671 23.9917 6.61686 23.862 6.49337C23.2552 5.92918 22.1098 4.94308 22.0063 5.27147C21.8593 5.22286 21.8189 5.30118 21.8201 5.41168C21.7252 5.50172 21.6641 5.66112 21.6338 5.86487C21.6135 6.00223 21.6172 6.14625 21.6405 6.28402C21.584 6.37133 21.5589 6.4448 21.5159 6.46533C21.5029 6.45931 21.5079 6.51917 21.4949 6.51315C21.4821 6.50822 21.5075 6.55875 21.4937 6.55349C21.4726 6.54653 21.4735 6.57219 21.4883 6.62362C21.0361 6.52639 20.5663 6.51028 20.0857 6.60659C20.0196 6.61973 19.9529 6.63533 19.8861 6.65307C19.8183 6.67038 19.7464 6.68699 19.671 6.70327C19.6549 6.70693 19.638 6.70915 19.6193 6.71217C18.5853 6.86942 16.0914 6.15542 16.1264 5.52982" fill="#9E242A"/>
<path d="M16.175 5.54635C16.2956 5.42709 16.8035 4.93221 17.5396 4.4039C18.2297 3.91153 19.1206 3.41492 20.0617 3.15127C20.7599 2.95563 21.4499 2.86484 22.1161 2.99098C22.8313 3.1259 23.5106 3.49265 24.1328 4.15119C24.1328 4.15119 24.1754 4.19341 24.1844 4.20153C24.1861 4.20279 24.208 4.21674 24.2103 4.21824C24.2736 4.27583 24.5099 4.51041 24.8047 5.05743C24.9679 5.35975 25.1495 5.75836 25.3286 6.27642C25.5058 6.78952 25.6819 7.41889 25.8367 8.18767C25.7507 8.09132 25.3932 8.06117 25.2757 7.93384C25.0796 7.72361 24.6853 7.29239 24.2358 6.84352C24.1025 6.71143 23.9711 6.58383 23.8439 6.46337C23.2101 5.87361 22.137 4.96422 22.0111 5.24444C21.8581 5.19344 21.8087 5.26616 21.801 5.36544C21.6951 5.45024 21.6237 5.60431 21.585 5.80322C21.5591 5.93958 21.5583 6.08094 21.5787 6.21636C21.5279 6.31285 21.5097 6.39352 21.4731 6.41921C21.4623 6.4143 21.4693 6.47722 21.458 6.47241C21.4462 6.46735 21.4752 6.52143 21.4635 6.5169C21.4445 6.51049 21.4489 6.5388 21.4678 6.59364C21.0218 6.50066 20.5598 6.4869 20.0893 6.58092C20.024 6.59374 19.9588 6.60921 19.8924 6.6263C19.8256 6.64385 19.7544 6.65894 19.6816 6.67625C19.6655 6.67971 19.6487 6.68251 19.6305 6.68543C18.6205 6.8412 16.1863 6.1454 16.175 5.54635" fill="#9C242A"/>
<path d="M16.2235 5.56262C16.3495 5.43793 16.8598 4.94312 17.594 4.41713C18.2889 3.92385 19.1849 3.42591 20.1306 3.17063C20.8152 2.98647 21.4878 2.90842 22.1347 3.03728C22.8315 3.17665 23.4911 3.53864 24.095 4.17831C24.095 4.17831 24.1383 4.22197 24.1461 4.22894C24.1478 4.23 24.1708 4.24454 24.1721 4.24621C24.2335 4.30165 24.4678 4.53316 24.7608 5.0786C24.9213 5.37699 25.0996 5.76867 25.276 6.278C25.4509 6.78165 25.6245 7.40001 25.777 8.15487C25.6878 8.05474 25.3575 8.00842 25.2345 7.87634C25.0303 7.65685 24.6464 7.23852 24.2114 6.80615C24.0799 6.67551 23.9514 6.5508 23.8262 6.43301C23.1648 5.81745 22.1641 4.98461 22.0168 5.21753C21.8566 5.16504 21.799 5.23083 21.7815 5.32022C21.665 5.39855 21.5823 5.5478 21.5356 5.74131C21.5033 5.87499 21.5 6.0159 21.5168 6.14852C21.4711 6.25349 21.4604 6.34236 21.4312 6.37321C21.4208 6.36821 21.4307 6.43559 21.4204 6.43102C21.4102 6.42659 21.4423 6.48375 21.4323 6.48009C21.416 6.47489 21.4231 6.5046 21.4471 6.5633C21.007 6.4748 20.5533 6.46564 20.0928 6.55543C20.0285 6.56806 19.9641 6.58283 19.8991 6.59959C19.8333 6.61716 19.7634 6.63392 19.6918 6.64948C19.6762 6.65285 19.6594 6.65565 19.6412 6.65857C18.655 6.81271 16.2813 6.13603 16.2235 5.56262" fill="#9A242A"/>
<path d="M16.2726 5.57913C16.404 5.44936 16.9162 4.9538 17.6499 4.43095C18.3489 3.93575 19.2507 3.43668 20.2002 3.19114C20.8724 3.01724 21.5268 2.95209 22.1531 3.08429C22.8323 3.22764 23.4714 3.58563 24.0573 4.20591C24.0573 4.20591 24.1019 4.25086 24.1089 4.25683C24.1102 4.25817 24.1336 4.27243 24.135 4.2743C24.1935 4.32718 24.4267 4.55602 24.7178 5.09929C24.8756 5.39376 25.0512 5.77904 25.2243 6.27859C25.3967 6.77422 25.5672 7.38194 25.7185 8.12218C25.6251 8.01806 25.3219 7.95668 25.1934 7.81869C24.9814 7.58971 24.607 7.18483 24.1879 6.76836C24.0584 6.6404 23.9318 6.51766 23.8095 6.40223C23.12 5.76152 22.1922 5.00507 22.0226 5.19096C21.856 5.13565 21.7899 5.1957 21.7628 5.27396C21.6355 5.34719 21.5417 5.49044 21.4873 5.6795C21.4488 5.81185 21.4415 5.95 21.4556 6.08088C21.4155 6.19461 21.4117 6.29159 21.3892 6.32654C21.3807 6.32318 21.3926 6.39343 21.3835 6.38977C21.3754 6.38646 21.4105 6.44636 21.4016 6.44323C21.3879 6.43892 21.3985 6.47142 21.4272 6.53369C20.9932 6.44886 20.5471 6.44095 20.0964 6.53022C20.033 6.54266 19.9704 6.55612 19.9069 6.57266C19.841 6.58965 19.7731 6.607 19.7026 6.62329C19.687 6.62685 19.6707 6.62937 19.653 6.63234C18.6912 6.78475 16.3763 6.12641 16.2726 5.57913" fill="#982429"/>
<path d="M16.3214 5.59547C16.4573 5.4606 16.9718 4.96446 17.7042 4.44478C18.4083 3.9482 19.3147 3.44765 20.2693 3.21057C20.9282 3.04712 21.5649 2.99522 22.1715 3.13056C22.8322 3.2774 23.4514 3.63226 24.0193 4.23339C24.0193 4.23339 24.0652 4.28002 24.0706 4.28497C24.0713 4.28583 24.0958 4.30081 24.097 4.30158C24.153 4.35226 24.3844 4.57889 24.6742 5.12087C24.829 5.40998 25.0015 5.78904 25.1719 6.27967C25.3416 6.76657 25.5101 7.36328 25.6588 8.09013C25.5615 7.98112 25.2861 7.90429 25.1524 7.76016C24.931 7.52329 24.5673 7.13065 24.1633 6.73097C24.035 6.60436 23.9109 6.48459 23.7912 6.37213C23.0745 5.70533 22.2192 5.02616 22.0276 5.16374C21.8546 5.10637 21.7795 5.16063 21.7426 5.22899C21.6051 5.29514 21.5005 5.43348 21.4383 5.6178C21.3941 5.74877 21.3829 5.8846 21.393 6.01307C21.3586 6.13579 21.3622 6.24026 21.3462 6.28089C21.3391 6.27726 21.3533 6.35209 21.3468 6.34889C21.3387 6.34544 21.378 6.40913 21.3705 6.40611C21.3591 6.4033 21.3737 6.43816 21.4059 6.5036C20.9782 6.4235 20.541 6.41777 20.0991 6.5044C20.0377 6.51668 19.9752 6.53051 19.913 6.54621C19.8485 6.56293 19.7809 6.57924 19.7126 6.59631C19.6975 6.60016 19.6812 6.60268 19.664 6.60556C18.7254 6.75547 16.471 6.1163 16.3214 5.59547" fill="#962429"/>
<path d="M16.3701 5.61178C16.5118 5.47135 17.0278 4.97454 17.7593 4.45828C18.4679 3.95951 19.3796 3.45796 20.3385 3.23087C20.9841 3.07786 21.6029 3.0386 22.1894 3.17704C22.8326 3.32819 23.4318 3.6789 23.9812 4.26079C23.9812 4.26079 24.0283 4.30876 24.0325 4.31237C24.0331 4.31323 24.0583 4.32869 24.0594 4.32946C24.1126 4.37758 24.3424 4.60164 24.6309 5.14174C24.783 5.42707 24.9522 5.7993 25.1199 6.28062C25.2864 6.75864 25.4523 7.34448 25.5998 8.05728C25.4988 7.94453 25.25 7.85162 25.1114 7.70226C24.8817 7.45561 24.5281 7.07681 24.139 6.69345C24.013 6.56886 23.8909 6.45124 23.7737 6.34177C23.0299 5.64912 22.247 5.04684 22.0329 5.13659C21.8527 5.07748 21.7699 5.12491 21.7236 5.18253C21.5755 5.24296 21.459 5.37568 21.3886 5.55597C21.3385 5.68455 21.3242 5.81926 21.3318 5.94513C21.302 6.07623 21.3131 6.18929 21.3045 6.23493C21.2985 6.23202 21.3153 6.30983 21.3094 6.30749C21.303 6.30486 21.3454 6.37182 21.3395 6.36948C21.3307 6.36712 21.3487 6.40478 21.3855 6.4734C20.964 6.39754 20.5348 6.39512 20.1023 6.47899C20.0418 6.49051 19.9811 6.50398 19.9204 6.51959C19.8558 6.53574 19.7898 6.55235 19.7234 6.56944C19.7079 6.57339 19.692 6.57581 19.6748 6.57869C18.7612 6.72984 16.5661 6.10659 16.3701 5.61178" fill="#942329"/>
<path d="M16.4189 5.62791C16.5651 5.48291 17.0829 4.98536 17.814 4.47229C18.5274 3.97203 19.444 3.46801 20.4077 3.25043C21.0399 3.10752 21.6408 3.08303 22.2079 3.22396C22.8326 3.37864 23.4118 3.72585 23.9437 4.2883C23.9437 4.2883 23.9916 4.33747 23.9946 4.34035C23.9952 4.34083 24.0204 4.35667 24.0216 4.35764C24.0717 4.40288 24.2996 4.62458 24.5869 5.1632C24.7365 5.44341 24.9025 5.80948 25.067 6.28192C25.2314 6.75093 25.3946 7.32584 25.5401 8.02535C25.4359 7.90819 25.2136 7.79945 25.0701 7.64462C24.8318 7.38903 24.4885 7.02332 24.1148 6.65571C23.9902 6.53337 23.8706 6.41877 23.7557 6.31079C22.9838 5.59276 22.2739 5.06748 22.038 5.11044C21.8513 5.04818 21.7594 5.08939 21.7038 5.13703C21.5452 5.19132 21.4182 5.31837 21.3396 5.4944C21.2833 5.62168 21.265 5.75345 21.2692 5.87711C21.2457 6.01801 21.2641 6.13799 21.2613 6.18845C21.2574 6.18613 21.276 6.26805 21.2721 6.26592C21.2674 6.26468 21.3128 6.3342 21.308 6.33258C21.3019 6.33181 21.3238 6.3716 21.3643 6.44382C20.9485 6.37187 20.5281 6.37144 20.1056 6.4532C20.046 6.46455 19.9863 6.47803 19.9265 6.49332C19.8634 6.50938 19.7987 6.52515 19.7333 6.54243C19.7188 6.54672 19.7025 6.54924 19.6854 6.5525C18.7977 6.71317 16.6602 6.09668 16.4189 5.62791" fill="#932329"/>
<path d="M16.4671 5.64421C16.6192 5.4937 17.1394 4.99608 17.8689 4.48484C18.587 3.98368 19.5086 3.47737 20.4768 3.27031C21.0962 3.13812 21.6794 3.12723 22.2262 3.2701C22.8331 3.43029 23.3922 3.77226 23.9056 4.3157C23.9056 4.3157 23.9547 4.36616 23.9571 4.36818C23.9571 4.36856 23.9834 4.38441 23.9835 4.38536C24.0317 4.42806 24.2582 4.64776 24.5441 5.18413C24.6904 5.45994 24.8532 5.81964 25.0149 6.2822C25.1763 6.74348 25.3374 7.3071 25.4812 7.99241C25.3728 7.87183 25.1781 7.74683 25.0291 7.58705C24.7825 7.32183 24.4492 6.9693 24.091 6.61824C23.9683 6.49782 23.8506 6.38539 23.7382 6.28038C22.9387 5.53658 22.3016 5.08773 22.0433 5.08305C21.8505 5.01964 21.7534 5.06222 21.6848 5.09109C21.5225 5.15962 21.3773 5.26076 21.291 5.43291C21.2283 5.55733 21.2068 5.68835 21.208 5.80908C21.1895 5.95831 21.215 6.08697 21.2191 6.14249C21.2163 6.14089 21.2376 6.2264 21.2348 6.22481C21.2317 6.22406 21.2806 6.29674 21.2774 6.29524C21.2735 6.29558 21.2988 6.33764 21.3439 6.41395C20.9344 6.34625 20.5216 6.34688 20.1092 6.42731C20.0506 6.439 19.9923 6.45149 19.9338 6.46608C19.8711 6.48206 19.8077 6.49898 19.7437 6.51561C19.7291 6.51933 19.7138 6.52223 19.6967 6.52549C18.8329 6.68452 16.7549 6.08739 16.4671 5.64421" fill="#912328"/>
<path d="M16.5161 5.6606C16.6733 5.50529 17.1948 5.00696 17.9239 4.49872C18.6462 3.99618 19.5727 3.48682 20.5458 3.29041C21.1522 3.16743 21.7174 3.17097 22.2445 3.31666C22.8329 3.48076 23.3724 3.81908 23.8678 4.34318C23.8678 4.34318 23.9177 4.39503 23.9189 4.39575C23.9189 4.39613 23.9463 4.41275 23.9463 4.41275C23.9915 4.45295 24.2161 4.67011 24.5002 5.20523C24.6438 5.47715 24.8037 5.8295 24.9627 6.28333C25.1214 6.73564 25.2801 7.28891 25.4222 7.96026C25.3099 7.83484 25.142 7.69449 24.9879 7.52876C24.7328 7.25475 24.4099 6.91569 24.0665 6.58047C23.9457 6.46206 23.8305 6.3526 23.7206 6.25004C22.8941 5.48088 22.3288 5.10882 22.0487 5.0564C21.8489 4.99026 21.7411 5.02371 21.6653 5.04546C21.4885 5.09744 21.3358 5.20351 21.2416 5.37055C21.1727 5.49348 21.1484 5.62291 21.1458 5.7415C21.133 5.90002 21.1657 6.0356 21.1772 6.09613C21.1756 6.09545 21.199 6.18441 21.1973 6.18353C21.1962 6.18281 21.2482 6.25895 21.2467 6.25865C21.245 6.25996 21.2742 6.30439 21.3228 6.38349C20.9196 6.32056 20.5155 6.32532 20.1119 6.40269C20.0552 6.41349 19.9978 6.4258 19.9402 6.43983C19.8783 6.45491 19.8158 6.47141 19.7539 6.48901C19.7399 6.49321 19.7247 6.49611 19.708 6.49929C18.8676 6.65635 16.8504 6.07757 16.5161 5.6606Z" fill="#902328"/>
<path d="M25.3623 7.92775C25.0552 7.58317 24.5678 7.05449 24.0422 6.5431C22.3274 4.87006 21.8674 4.95762 21.6458 4.99981C21.4551 5.03611 21.2938 5.14594 21.1925 5.30935C21.0099 5.60303 21.1035 5.93926 21.134 6.04997L21.16 6.14286L21.2151 6.22188C21.216 6.22403 21.2486 6.27067 21.302 6.35391C20.9049 6.29465 20.5087 6.30196 20.115 6.3769C19.9977 6.39922 19.8797 6.42767 19.7643 6.46238C19.7498 6.46667 19.735 6.46949 19.7183 6.47266C18.9023 6.62799 16.9444 6.06761 16.5643 5.67711C16.7268 5.51632 17.2503 5.01768 17.978 4.51256C18.7054 4.00811 19.6368 3.49647 20.6144 3.31038C21.8766 3.07012 22.9285 3.41706 23.8292 4.37081L23.8803 4.42377L23.9083 4.44087C23.9506 4.47909 24.1736 4.69304 24.4565 5.22691C24.5976 5.49349 24.754 5.84014 24.9102 6.28448C25.0663 6.72843 25.2223 7.27021 25.3623 7.92775" fill="#8E2328"/>
<path d="M33.0922 20.4087C32.5742 18.0302 33.6852 16.8685 30.5232 16.9572C30.117 16.9693 29.3491 16.9286 28.3694 16.8726C28.5794 16.2865 28.9505 15.9916 28.9505 15.9916C27.4487 16.1382 26.4008 16.4532 25.7245 16.7356C25.0033 16.704 24.2474 16.677 23.4893 16.6646C24.3458 16.1251 24.6536 16.0449 24.6536 16.0449C23.4671 16.2495 23.1919 16.3918 22.5677 16.6544C21.5751 16.6526 20.5992 16.6793 19.707 16.751C20.4275 16.073 21.0331 16.1695 19.6151 16.4341C18.0984 16.7153 16.1153 17.6727 16.1153 17.6727C16.1153 17.6727 16.4417 16.4296 18.5617 15.9732C18.5617 15.9732 15.1024 15.8236 12.7251 18.5739C12.7251 18.5739 13.0026 17.6393 13.6281 16.8228C13.6281 16.8228 11.3051 16.9752 9.20297 19.4691C9.20297 19.4691 7.85886 18.9598 7.32779 18.6401C7.0526 19.3351 5.632 23.1153 6.11198 25.8599C6.37193 27.3372 6.60451 27.656 8.16518 27.8915C10.1907 28.1974 12.0643 28.4082 15.0139 27.79C17.9658 27.1737 19.2055 27.0957 21.7247 26.671C25.3907 26.0513 24.6481 26.3848 26.3973 26.0044C37.5599 23.5778 33.7346 23.3606 33.0922 20.4087V20.4087ZM7.32779 18.6401C7.34081 18.6021 7.35493 18.5647 7.37395 18.5271C7.37395 18.5271 7.35722 18.5664 7.32779 18.6401Z" fill="url(#paint14_radial_2008_101)"/>
<path d="M12.7414 7.60365C12.7414 7.60365 9.45553 13.1807 9.66528 18.0918C9.66528 18.0918 11.0984 11.6607 12.7414 7.60365Z" fill="#DB3149"/>
<path d="M10.1726 18.5395C11.6331 17.4262 12.8349 18.62 14.774 17.9659C15.5169 17.7144 18.877 16.2089 20.1327 15.9787C22.1529 15.6105 22.2765 16.5556 23.9383 16.4147C26.6306 16.1856 28.919 15.9916 29.7955 16.2835C30.6719 16.5751 31.8131 17.152 31.8131 17.152C31.811 17.3097 31.7889 17.4506 31.7503 17.5745C30.515 17.1518 28.4267 16.6874 25.4335 16.8482C20.2347 17.127 16.5235 18.0597 14.4927 19.2049C14.4927 19.2049 14.5556 18.783 16.7167 18.0366C16.7167 18.0366 12.984 19.0194 11.076 20.4439C11.076 20.4439 11.1584 20.1167 11.6382 19.7182C11.6382 19.7182 8.39401 21.399 7.86126 22.757C7.86126 22.757 7.51064 22.5784 7.80916 22.1771C7.80916 22.1771 6.60468 22.8633 6.29544 23.67C6.24603 23.5376 6.23761 23.3999 6.25649 23.2734C6.33612 22.7213 8.71431 19.6514 10.1726 18.5395" fill="white"/>
<path d="M6.44482 26.9921C6.44482 26.9921 6.25084 25.8173 6.27721 25.3435C6.30237 24.8685 6.24442 23.5702 6.27623 22.5723C6.35504 20.0516 6.93482 19.1559 7.37376 18.5271C7.81174 17.8985 9.48371 17.4265 9.48371 17.4265C9.48371 17.4265 8.8625 18.2264 8.17976 19.3596C7.49659 20.4932 6.82401 21.4877 6.73052 22.2369C6.63763 22.9866 6.92311 22.5558 7.4349 21.3289C7.94648 20.101 9.21506 18.7812 9.21506 18.7812C9.21506 18.7812 8.08171 20.3054 7.94757 20.6049C7.81298 20.9047 9.59318 18.3571 11.016 17.9697C11.016 17.9697 8.74402 19.1998 7.67421 21.9037C6.60305 24.6083 6.35304 26.3283 6.44482 26.9921" fill="#FAFAFB"/>
<path d="M8.63531 22.7317C8.63531 22.7317 9.57819 22.2722 9.63751 22.5216C9.63751 22.5216 10.4679 21.3911 10.9042 22.1364C10.9042 22.1364 11.5693 21.2816 12.0231 21.9402C12.0231 21.9402 11.6726 20.9548 11.3059 21.0009C11.3059 21.0009 10.2403 20.7039 9.93029 21.4286C9.93029 21.4286 8.8365 21.5934 8.70233 22.1237C8.70233 22.1237 8.44185 22.5561 8.63531 22.7317" fill="#E4E1DE"/>
<path d="M8.81836 22.0918C8.81836 22.0918 9.75703 21.4157 9.95367 21.813C9.95367 21.813 10.4056 20.8838 11.6572 21.299C11.6572 21.299 10.7538 20.4689 10.0401 21.5299C10.0401 21.5299 8.93369 21.5819 8.81836 22.0918Z" fill="#B0AA98"/>
<path d="M9.01147 22.0364C9.01147 22.0364 9.75297 21.4142 9.97299 21.6697C9.97299 21.6697 10.2576 20.9383 11.4074 21.0522C11.4074 21.0522 10.5129 20.5904 10.0159 21.4539C10.0159 21.4539 9.05044 21.6547 9.01147 22.0364" fill="white"/>
<path d="M25.703 19.9526C25.703 19.9526 26.6412 19.5857 26.7563 19.9022C26.7563 19.9022 27.8275 19.7018 27.9609 20.0912C27.9609 20.0912 28.449 19.9802 28.584 20.2848C28.584 20.2848 28.5826 19.6182 28.0389 19.3747C28.0389 19.3747 27.386 18.8667 27.0793 19.0875C27.0793 19.0875 25.9216 18.6179 25.8538 19.4398C25.8538 19.4398 25.3296 19.714 25.703 19.9526" fill="#E4E1DE"/>
<path d="M25.8582 19.8649C25.8582 19.8649 25.9473 19.2536 26.9169 19.6456C26.9169 19.6456 27.4767 19.5167 27.9348 19.9797C27.9348 19.9797 27.5912 19.6125 26.9005 19.7954C26.9005 19.7954 26.5649 19.3945 25.8582 19.8649Z" fill="#B0AA98"/>
<path d="M25.9678 19.7521C25.9678 19.7521 26.0411 19.2446 26.8448 19.5697C26.8448 19.5697 27.3071 19.463 27.6877 19.8459C27.6877 19.8459 27.4035 19.5415 26.8304 19.6934C26.8304 19.6934 26.5528 19.3615 25.9678 19.7521Z" fill="white"/>
<path d="M17.0833 20.9849C17.0833 20.9849 17.8308 20.3091 18.0509 20.5646C18.0509 20.5646 18.9812 19.9977 19.2445 20.3146C19.2445 20.3146 19.6599 20.037 19.8949 20.2753C19.8949 20.2753 19.6576 19.6512 19.0627 19.6162C19.0627 19.6162 18.2725 19.373 18.0638 19.6879C18.0638 19.6879 16.8142 19.6595 17.0426 20.4522C17.0426 20.4522 16.6495 20.8936 17.0833 20.9849" fill="#E4E1DE"/>
<path d="M17.1975 20.8478C17.1975 20.8478 17.0635 20.2451 18.1104 20.2671C18.1104 20.2671 18.5875 19.9477 19.1795 20.2191C19.1795 20.2191 18.7278 19.997 18.1471 20.4133C18.1471 20.4133 17.691 20.1577 17.1975 20.8478Z" fill="#B0AA98"/>
<path d="M17.2595 20.7032C17.2595 20.7032 17.1484 20.2023 18.0145 20.2217C18.0145 20.2217 18.4098 19.9582 18.9013 20.1812C18.9013 20.1812 18.5274 19.9975 18.0459 20.3427C18.0459 20.3427 17.6687 20.1309 17.2595 20.7032" fill="white"/>
</g>
<defs>
<linearGradient id="paint0_linear_2008_101" x1="12.55" y1="11.8" x2="49.9867" y2="54.7561" gradientUnits="userSpaceOnUse">
<stop stop-color="#FF6C79"/>
<stop offset="1" stop-color="#FFA841"/>
</linearGradient>
<linearGradient id="paint1_linear_2008_101" x1="30.1998" y1="7.68554" x2="24.6984" y2="11.0792" gradientUnits="userSpaceOnUse">
<stop stop-color="#F8F9FA"/>
<stop offset="1" stop-color="#E7E6E5"/>
</linearGradient>
<linearGradient id="paint2_linear_2008_101" x1="25.5357" y1="11.9543" x2="26.5585" y2="10.658" gradientUnits="userSpaceOnUse">
<stop stop-color="#F8F9FA"/>
<stop offset="1" stop-color="#E7E6E5"/>
</linearGradient>
<linearGradient id="paint3_linear_2008_101" x1="30.1342" y1="7.752" x2="24.7243" y2="11.0892" gradientUnits="userSpaceOnUse">
<stop stop-color="#F2F3F2"/>
<stop offset="1" stop-color="#D1D1D0"/>
</linearGradient>
<linearGradient id="paint4_linear_2008_101" x1="30.0273" y1="7.53062" x2="24.7747" y2="10.7708" gradientUnits="userSpaceOnUse">
<stop stop-color="#EADEED"/>
<stop offset="1" stop-color="#D3D3D3"/>
</linearGradient>
<linearGradient id="paint5_linear_2008_101" x1="29.8322" y1="6.7897" x2="27.2164" y2="9.06058" gradientUnits="userSpaceOnUse">
<stop stop-color="white"/>
<stop offset="0.266667" stop-color="white"/>
<stop offset="1" stop-color="#D3D3D3"/>
</linearGradient>
<linearGradient id="paint6_linear_2008_101" x1="28.9025" y1="6.03976" x2="26.2193" y2="8.36923" gradientUnits="userSpaceOnUse">
<stop stop-color="white"/>
<stop offset="0.266667" stop-color="white"/>
<stop offset="1" stop-color="#D3D3D3"/>
</linearGradient>
<linearGradient id="paint7_linear_2008_101" x1="27.3731" y1="11.2384" x2="26.5424" y2="7.65209" gradientUnits="userSpaceOnUse">
<stop stop-color="#D1D1D0"/>
<stop offset="1" stop-color="#A7A7A6"/>
</linearGradient>
<linearGradient id="paint8_linear_2008_101" x1="27.5109" y1="9.5062" x2="26.8358" y2="8.56501" gradientUnits="userSpaceOnUse">
<stop stop-color="#A7A7A6"/>
<stop offset="0.993939" stop-color="#505255"/>
<stop offset="1" stop-color="#505255"/>
</linearGradient>
<linearGradient id="paint9_linear_2008_101" x1="31.4068" y1="9.52249" x2="25.2791" y2="13.3024" gradientUnits="userSpaceOnUse">
<stop stop-color="#F8F9FA"/>
<stop offset="1" stop-color="#E7E6E5"/>
</linearGradient>
<linearGradient id="paint10_linear_2008_101" x1="28.2655" y1="5.18535" x2="23.5717" y2="9.10719" gradientUnits="userSpaceOnUse">
<stop stop-color="#F8F9FA"/>
<stop offset="1" stop-color="#E7E6E5"/>
</linearGradient>
<linearGradient id="paint11_linear_2008_101" x1="24.6414" y1="17.1901" x2="11.4679" y2="7.6211" gradientUnits="userSpaceOnUse">
<stop stop-color="#832126"/>
<stop offset="0.345455" stop-color="#C02229"/>
<stop offset="1" stop-color="#DA292E"/>
</linearGradient>
<linearGradient id="paint12_linear_2008_101" x1="39.7286" y1="10.8459" x2="-3.71069" y2="10.2931" gradientUnits="userSpaceOnUse">
<stop stop-color="#832126"/>
<stop offset="0.345455" stop-color="#C02229"/>
<stop offset="1" stop-color="#DA292E"/>
</linearGradient>
<linearGradient id="paint13_linear_2008_101" x1="30.0387" y1="12.1926" x2="4.86546" y2="16.9844" gradientUnits="userSpaceOnUse">
<stop stop-color="#832126"/>
<stop offset="0.345455" stop-color="#C02229"/>
<stop offset="1" stop-color="#DA292E"/>
</linearGradient>
<radialGradient id="paint14_radial_2008_101" cx="0" cy="0" r="1" gradientUnits="userSpaceOnUse" gradientTransform="translate(22.421 40.0592) rotate(-10.7775) scale(20.3248 20.3248)">
<stop stop-color="#9E9E9C"/>
<stop offset="0.401099" stop-color="#9E9E9C"/>
<stop offset="0.860606" stop-color="#EAE9E8"/>
<stop offset="0.945055" stop-color="#F4F4F3"/>
<stop offset="1" stop-color="#FAF9FB"/>
</radialGradient>
<clipPath id="clip0_2008_101">
<rect width="65" height="65" fill="white"/>
</clipPath>
</defs>
</svg>
