<svg viewBox="0 0 17 17" xmlns="http://www.w3.org/2000/svg">
    <path d="M4.5433 1.22007C4.47202 1.23018 4.27814 1.26581 4.11006 1.2964C1.91861 1.67352 0.195762 3.58492 0.0173076 5.82744C-0.0845524 7.07609 0.267038 8.35532 0.970483 9.28802C1.29149 9.71115 7.20894 15.6845 7.48926 15.8626C7.86638 16.1023 8.34031 16.2041 8.77886 16.1379C9.46183 16.031 9.35465 16.1225 12.6881 12.7691C14.375 11.0667 15.8734 9.52765 16.0162 9.34414C16.3372 8.92633 16.7399 8.11597 16.8878 7.58566C16.9846 7.23407 17 7.05561 17 6.26041C17 5.40431 16.9899 5.31229 16.8572 4.88437C15.7971 1.42379 11.7961 0.0884392 8.94721 2.2392L8.50865 2.57084L8.34563 2.4384C7.7084 1.91341 6.939 1.51581 6.19992 1.33762C5.80737 1.2456 4.80845 1.17433 4.5433 1.22007Z"/>
</svg>